# Blender v2.76 (sub 0) OBJ File: 'Chair.blend'
# www.blender.org
mtllib Chair.mtl
o Cube
v 1.000000 1.900000 -1.000000
v 1.000000 1.900000 1.000000
v -1.000000 1.900000 1.000000
v -1.000000 1.900000 -1.000000
v 1.000000 2.100000 -0.999999
v 1.000000 2.100000 1.000001
v -1.000000 2.100000 1.000000
v -1.000000 2.100000 -1.000000
v 1.000000 1.900000 0.000000
v 0.000000 1.900000 -1.000000
v 0.000000 1.900000 1.000000
v -1.000000 1.900000 -0.000000
v 0.000000 2.100000 -1.000000
v 1.000000 1.900000 0.500000
v -0.500000 1.900000 -1.000000
v -0.500000 1.900000 1.000000
v -1.000000 1.900000 -0.500000
v 1.000000 1.900000 -0.500000
v 0.500000 1.900000 -1.000000
v 0.500000 1.900000 1.000000
v -1.000000 1.900000 0.500000
v 0.000000 2.100000 1.000000
v 1.000000 2.100000 0.000001
v 0.500000 1.900000 0.500000
v 0.500000 1.900000 -0.500000
v -0.500000 1.900000 -0.500000
v -0.500000 1.900000 0.500000
v -0.500000 0.000000 1.000000
v -1.000000 0.000000 1.000000
v -1.000000 0.000000 0.500000
v -0.500000 0.000000 0.500000
v 1.000000 0.000000 0.500000
v 1.000000 0.000000 1.000000
v 0.500000 0.000000 1.000000
v 0.500000 0.000000 0.500000
v 1.000000 0.000000 -1.000000
v 1.000000 0.000000 -0.500000
v 0.500000 0.000000 -1.000000
v 0.500000 0.000000 -0.500000
v -0.500000 0.000000 -1.000000
v -1.000000 0.000000 -1.000000
v -1.000000 0.000000 -0.500000
v -0.500000 0.000000 -0.500000
v -1.000000 2.100000 -0.000000
v 1.000000 2.100000 0.500001
v -0.500000 2.100000 -1.000000
v -0.500000 2.100000 1.000000
v -1.000000 2.100000 -0.500000
v -0.250000 4.500000 0.750000
v 0.500000 2.100000 1.000000
v 0.500000 2.100000 -1.000000
v -0.500000 4.400000 0.750000
v 1.000000 2.100000 -0.499999
v -1.000000 2.100000 0.500000
v 0.500000 4.400000 1.000000
v -0.750000 4.300000 1.000000
v 1.000000 2.100000 0.750001
v -0.750000 2.100000 -1.000000
v -0.750000 2.100000 1.000000
v -1.000000 2.100000 -0.750000
v -0.750000 4.300000 0.750000
v 1.000000 2.100000 0.250001
v -1.000000 2.100000 -0.250000
v 0.250000 2.100000 1.000000
v 0.250000 2.100000 -1.000000
v 0.000000 2.100000 0.750000
v 1.000000 2.100000 -0.249999
v -1.000000 2.100000 0.250000
v -0.250000 2.100000 1.000000
v -0.250000 2.100000 -1.000000
v -0.500000 4.400000 1.000000
v 0.750000 2.100000 1.000000
v 0.750000 2.100000 -1.000000
v 1.000000 2.100000 -0.749999
v -1.000000 2.100000 0.750000
v 0.500000 2.100000 0.750000
v 0.250000 4.500000 0.750000
v 0.000000 4.500000 1.000000
v 0.750000 4.300000 0.750000
v 0.250000 4.500000 1.000000
v -0.500000 2.100000 0.750000
v -0.250000 4.500000 1.000000
v 0.000000 4.500000 0.750000
v 1.000000 4.000000 0.750001
v -1.000000 4.000000 1.000000
v -1.000000 4.000000 0.750000
v -0.250000 2.100000 0.750000
v 0.250000 2.100000 0.750000
v 1.000000 4.000000 1.000001
v 0.500000 4.400000 0.750000
v 0.750000 4.300000 1.000000
v 0.750000 2.100000 0.750000
v -0.750000 2.100000 0.750000
vt 0.687500 0.000000
vt 0.687500 0.422222
vt 0.656250 0.422222
vt 0.296875 0.465727
vt 0.281250 0.421372
vt 0.312500 0.421372
vt 0.046875 0.466667
vt 0.031250 0.466667
vt 0.031250 0.422222
vt 0.156250 0.465726
vt 0.140625 0.465726
vt 0.156250 0.421372
vt 0.562500 0.044444
vt 0.562500 0.000000
vt 0.578125 0.000000
vt 0.093750 0.422222
vt 0.093750 0.000000
vt 0.125000 0.000000
vt 0.718750 0.000000
vt 0.718750 0.422222
vt 0.781250 0.421372
vt 0.781250 0.000000
vt 0.812500 0.000000
vt 0.093750 0.977778
vt 0.062500 1.000000
vt 0.062500 0.466667
vt 0.890625 0.138889
vt 0.890625 0.144444
vt 0.875000 0.144444
vt 0.875000 0.100000
vt 0.875000 0.088889
vt 0.906250 0.088889
vt 0.218750 0.421372
vt 0.218750 0.000000
vt 0.250000 0.000000
vt 0.000000 0.422222
vt 0.000000 0.000000
vt 0.031250 0.000000
vt 0.750000 0.421372
vt 0.750000 0.000000
vt 0.875000 0.111111
vt 0.906250 0.111111
vt 0.906250 0.122222
vt 0.812500 0.421372
vt 0.843750 0.000000
vt 0.250000 0.421372
vt 0.281250 0.000000
vt 0.750000 0.422222
vt 0.906250 0.133333
vt 0.875000 0.133333
vt 0.343750 0.421372
vt 0.343750 0.000000
vt 0.375000 0.000000
vt 0.875000 0.000000
vt 0.875000 0.421372
vt 0.843750 0.421372
vt 0.625000 0.044444
vt 0.625000 0.466667
vt 0.593750 0.466667
vt 0.906250 0.100000
vt 0.656250 0.000000
vt 0.625000 0.422222
vt 0.125000 0.421372
vt 0.156250 0.000000
vt 0.531250 0.044444
vt 0.531250 0.466667
vt 0.500000 0.466667
vt 0.906250 0.033333
vt 0.906250 0.011111
vt 0.968750 0.033333
vt 0.250000 0.465726
vt 0.250000 0.887098
vt 0.234375 0.887098
vt 0.234375 0.999043
vt 0.234375 0.976513
vt 0.250000 0.976513
vt 0.234375 0.953983
vt 0.250000 0.953983
vt 0.406250 0.511111
vt 0.375000 0.422222
vt 0.437500 0.000000
vt 0.265625 0.887098
vt 0.265625 0.953983
vt 0.265625 0.465727
vt 0.265625 0.976513
vt 0.265625 0.999043
vt 0.250000 0.999043
vt 0.890625 0.133333
vt 0.875000 0.138889
vt 0.984375 0.072222
vt 0.937500 0.088889
vt 0.921875 0.088889
vt 0.375000 0.421372
vt 0.359375 0.465727
vt 0.343750 0.465727
vt 0.328125 0.465727
vt 0.375000 0.465727
vt 0.281250 0.465727
vt 0.312500 0.465727
vt 0.125000 0.422222
vt 0.109375 0.466667
vt 0.125000 0.466667
vt 0.093750 0.466667
vt 0.078125 0.466667
vt 0.062500 0.422222
vt 0.015625 0.466667
vt 0.000000 0.466667
vt 0.234375 0.465726
vt 0.218750 0.465726
vt 0.203125 0.465726
vt 0.171875 0.465726
vt 0.187500 0.465726
vt 0.187500 0.421372
vt 0.125000 0.465726
vt 0.609375 0.000000
vt 0.625000 0.000000
vt 0.593750 0.044444
vt 0.546875 0.000000
vt 0.500000 0.044444
vt 0.500000 0.000000
vt 0.515625 0.000000
vt 0.531250 0.000000
vt 0.593750 0.000000
vt 0.000000 0.888889
vt 0.125000 0.888889
vt 0.109375 0.955556
vt 0.078125 1.000000
vt 0.046875 1.000000
vt 0.031250 0.977778
vt 0.015625 0.955556
vt 0.781250 0.421372
vt 0.875000 0.122222
vt 0.937500 0.044444
vt 0.906250 0.044444
vt 0.968750 0.044444
vt 1.000000 0.022222
vt 1.000000 0.033333
vt 0.968750 0.011111
vt 1.000000 0.011111
vt 0.937500 0.000000
vt 0.968750 0.000000
vt 0.906250 0.000000
vt 0.875000 0.022222
vt 0.875000 0.011111
vt 0.875000 0.033333
vt 0.468750 0.511111
vt 0.437500 0.533333
vt 0.468750 0.000000
vt 0.484375 0.000000
vt 0.500000 0.422222
vt 0.484375 0.488889
vt 0.453125 0.533333
vt 0.421875 0.533333
vt 0.390625 0.488889
vt 0.390625 0.000000
vt 0.406250 0.000000
vt 0.421875 0.000000
vt 0.453125 0.000000
vt 0.953125 0.088889
vt 0.984375 0.077778
vt 0.875000 0.072222
vt 0.890625 0.088889
vt 0.875000 0.083333
vt 0.875000 0.077778
vt 0.875000 0.066667
vt 0.984375 0.066667
vt 0.875000 0.050000
vt 0.875000 0.044444
vt 0.890625 0.044444
vt 0.875000 0.061111
vt 0.984375 0.061111
vt 0.875000 0.055556
vt 0.921875 0.044444
vt 0.953125 0.044444
vt 0.984375 0.050000
vt 0.984375 0.055556
vt 0.984375 0.044444
vt 0.968750 0.088889
vt 0.984375 0.083333
vt 0.984375 0.088889
vn 0.000000 0.000000 -1.000000
vn 1.000000 0.000000 0.000000
vn -0.000000 0.000000 1.000000
vn -1.000000 -0.000000 0.000000
vn 0.000000 1.000000 0.000000
vn 0.000000 -1.000000 0.000000
vn -0.371400 0.928500 0.000000
vn 0.768200 0.640200 0.000000
vn 0.371400 0.928500 0.000000
vn -0.768200 0.640200 0.000000
usemtl Material
s off
f 27/1/1 31/2/1 30/3/1
f 62/4/2 14/5/2 9/6/2
f 69/7/3 47/8/3 16/9/3
f 48/10/4 60/11/4 17/12/4
f 10/13/1 13/14/1 65/15/1
f 20/16/3 34/17/3 33/18/3
f 25/19/3 39/20/3 37/2/3
f 26/21/2 43/22/2 40/23/2
f 55/24/3 78/25/3 22/26/3
f 83/27/5 49/28/5 82/29/5
f 28/30/6 29/31/6 30/32/6
f 21/33/4 30/34/4 29/35/4
f 3/36/3 29/37/3 28/38/3
f 16/39/2 28/40/2 31/22/2
f 32/41/6 33/42/6 34/43/6
f 24/44/4 35/23/4 34/45/4
f 2/46/2 33/35/2 32/47/2
f 14/40/1 32/48/1 35/20/1
f 37/43/6 39/49/6 38/50/6
f 18/51/2 37/52/2 36/53/2
f 19/54/4 38/55/4 39/56/4
f 1/57/1 36/58/1 38/59/1
f 43/30/6 42/60/6 41/42/6
f 17/61/3 42/3/3 43/62/3
f 4/63/4 41/18/4 42/64/4
f 15/65/1 40/66/1 41/67/1
f 26/68/6 25/69/6 27/70/6
f 7/71/4 85/72/4 86/73/4
f 49/74/7 52/75/7 71/76/7
f 52/75/7 61/77/7 56/78/7
f 90/79/1 84/80/1 66/81/1
f 84/82/8 79/83/8 91/78/8
f 57/84/2 84/82/2 89/72/2
f 90/85/9 77/86/9 80/87/9
f 79/83/9 90/85/9 55/76/9
f 77/88/5 83/27/5 78/89/5
f 86/73/10 85/72/10 56/78/10
f 88/90/5 23/91/5 67/92/5
f 21/61/1 27/1/1 30/3/1
f 18/51/2 1/93/2 74/94/2
f 53/95/2 67/96/2 18/51/2
f 1/93/2 5/97/2 74/94/2
f 74/94/2 53/95/2 18/51/2
f 62/4/2 45/98/2 14/5/2
f 67/96/2 23/99/2 9/6/2
f 9/6/2 18/51/2 67/96/2
f 2/46/2 14/5/2 57/84/2
f 57/84/2 6/71/2 2/46/2
f 9/6/2 23/99/2 62/4/2
f 45/98/2 57/84/2 14/5/2
f 20/16/3 2/100/3 72/101/3
f 6/102/3 72/101/3 2/100/3
f 50/103/3 64/104/3 20/16/3
f 22/26/3 69/7/3 11/105/3
f 47/8/3 59/106/3 16/9/3
f 7/107/3 3/36/3 59/106/3
f 16/9/3 11/105/3 69/7/3
f 20/16/3 72/101/3 50/103/3
f 64/104/3 22/26/3 11/105/3
f 59/106/3 3/36/3 16/9/3
f 11/105/3 20/16/3 64/104/3
f 21/33/4 3/46/4 75/108/4
f 7/71/4 75/108/4 3/46/4
f 54/109/4 68/110/4 21/33/4
f 63/111/4 48/10/4 17/12/4
f 68/110/4 44/112/4 12/113/4
f 21/33/4 75/108/4 54/109/4
f 17/12/4 12/113/4 63/111/4
f 8/114/4 4/63/4 60/11/4
f 44/112/4 63/111/4 12/113/4
f 60/11/4 4/63/4 17/12/4
f 12/113/4 21/33/4 68/110/4
f 73/115/1 5/116/1 1/57/1
f 1/57/1 19/117/1 73/115/1
f 10/13/1 15/65/1 70/118/1
f 4/119/1 8/120/1 58/121/1
f 58/121/1 46/122/1 15/65/1
f 70/118/1 13/14/1 10/13/1
f 65/15/1 51/123/1 19/117/1
f 73/115/1 19/117/1 51/123/1
f 15/65/1 4/119/1 58/121/1
f 46/122/1 70/118/1 15/65/1
f 65/15/1 19/117/1 10/13/1
f 2/100/3 20/16/3 33/18/3
f 18/1/3 25/19/3 37/2/3
f 15/44/2 26/21/2 40/23/2
f 59/106/3 47/8/3 85/124/3
f 69/7/3 22/26/3 85/124/3
f 64/104/3 50/103/3 89/125/3
f 72/101/3 6/102/3 89/125/3
f 89/125/3 91/126/3 55/24/3
f 55/24/3 80/127/3 78/25/3
f 78/25/3 82/128/3 71/129/3
f 71/129/3 56/130/3 85/124/3
f 85/124/3 7/107/3 59/106/3
f 47/8/3 69/7/3 85/124/3
f 50/103/3 72/101/3 89/125/3
f 89/125/3 55/24/3 22/26/3
f 78/25/3 71/129/3 22/26/3
f 85/124/3 22/26/3 71/129/3
f 64/104/3 89/125/3 22/26/3
f 78/89/5 83/27/5 82/29/5
f 31/60/6 28/30/6 30/32/6
f 3/46/4 21/33/4 29/35/4
f 16/9/3 3/36/3 28/38/3
f 27/131/2 16/39/2 31/22/2
f 35/132/6 32/41/6 34/43/6
f 20/56/4 24/44/4 34/45/4
f 14/5/2 2/46/2 32/47/2
f 24/19/1 14/40/1 35/20/1
f 36/132/6 37/43/6 38/50/6
f 1/93/2 18/51/2 36/53/2
f 25/45/4 19/54/4 39/56/4
f 19/117/1 1/57/1 38/59/1
f 40/41/6 43/30/6 41/42/6
f 26/116/3 17/61/3 43/62/3
f 17/12/4 4/63/4 42/64/4
f 4/119/1 15/65/1 41/67/1
f 12/133/6 17/134/6 26/68/6
f 27/70/6 21/135/6 12/133/6
f 11/136/6 16/137/6 27/70/6
f 24/138/6 20/139/6 11/136/6
f 9/140/6 14/141/6 24/138/6
f 25/69/6 18/142/6 9/140/6
f 10/143/6 19/144/6 25/69/6
f 26/68/6 15/145/6 10/143/6
f 27/70/6 12/133/6 26/68/6
f 24/138/6 11/136/6 27/70/6
f 25/69/6 9/140/6 24/138/6
f 26/68/6 10/143/6 25/69/6
f 24/138/6 27/70/6 25/69/6
f 75/108/4 7/71/4 86/73/4
f 82/87/7 49/74/7 71/76/7
f 71/76/7 52/75/7 56/78/7
f 66/81/1 52/146/1 83/147/1
f 81/148/1 93/149/1 86/150/1
f 75/120/1 86/150/1 93/149/1
f 61/151/1 52/146/1 86/150/1
f 49/152/1 83/147/1 52/146/1
f 77/153/1 90/79/1 83/147/1
f 79/154/1 84/80/1 90/79/1
f 57/53/1 92/155/1 84/80/1
f 76/156/1 88/157/1 84/80/1
f 86/150/1 52/146/1 66/81/1
f 86/150/1 87/158/1 81/148/1
f 83/147/1 90/79/1 66/81/1
f 84/80/1 92/155/1 76/156/1
f 88/157/1 66/81/1 84/80/1
f 66/81/1 87/158/1 86/150/1
f 89/72/8 84/82/8 91/78/8
f 6/71/2 57/84/2 89/72/2
f 55/76/9 90/85/9 80/87/9
f 91/78/9 79/83/9 55/76/9
f 80/50/5 77/88/5 78/89/5
f 61/77/10 86/73/10 56/78/10
f 62/159/5 23/91/5 76/160/5
f 67/92/5 53/32/5 65/161/5
f 74/162/5 5/31/5 73/163/5
f 73/163/5 51/164/5 74/162/5
f 65/161/5 13/165/5 66/166/5
f 58/167/5 8/168/5 60/169/5
f 13/165/5 70/170/5 87/171/5
f 46/172/5 58/167/5 60/169/5
f 60/169/5 48/134/5 46/172/5
f 63/173/5 44/133/5 87/171/5
f 68/174/5 54/135/5 93/175/5
f 93/175/5 81/176/5 68/174/5
f 54/135/5 75/177/5 93/175/5
f 48/134/5 63/173/5 46/172/5
f 70/170/5 46/172/5 63/173/5
f 74/162/5 51/164/5 53/32/5
f 45/178/5 62/159/5 76/160/5
f 53/32/5 51/164/5 65/161/5
f 70/170/5 63/173/5 87/171/5
f 68/174/5 81/176/5 87/171/5
f 87/171/5 66/166/5 13/165/5
f 76/160/5 92/179/5 45/178/5
f 66/166/5 88/90/5 65/161/5
f 44/133/5 68/174/5 87/171/5
f 23/91/5 88/90/5 76/160/5
f 92/179/5 57/180/5 45/178/5
f 65/161/5 88/90/5 67/92/5
