# Blender v2.76 (sub 0) OBJ File: 'Table.blend'
# www.blender.org
mtllib Table.mtl
o Plane
v -1.000000 1.905686 1.000000
v 1.000000 1.905686 1.000000
v -1.000000 1.905686 -1.000000
v 1.000000 1.905686 -1.000000
v -1.000000 1.713077 1.000000
v 1.000000 1.713077 1.000000
v -1.000000 1.713077 -1.000000
v 1.000000 1.713077 -1.000000
v -1.000000 1.713077 0.000000
v 1.000000 1.713077 0.000000
v -1.000000 1.713077 0.500000
v 0.500000 1.713077 1.000000
v 1.000000 1.713077 -0.500000
v -0.500000 1.713077 -1.000000
v -1.000000 1.713077 -0.500000
v -0.500000 1.713077 1.000000
v 1.000000 1.713077 0.500000
v 0.500000 1.713077 -1.000000
v -0.500000 1.713077 0.000000
v 0.500000 1.713077 0.000000
v 0.500000 1.713077 0.500000
v -0.500000 1.713077 0.500000
v -0.500000 1.713077 -0.500000
v 0.500000 1.713077 -0.500000
v -1.000000 1.713077 0.750000
v 0.750000 1.713077 1.000000
v 1.000000 1.713077 -0.750000
v -0.750000 1.713077 -1.000000
v -1.000000 1.713077 -0.250000
v -0.250000 1.713077 1.000000
v 1.000000 1.713077 0.250000
v 0.250000 1.713077 -1.000000
v -0.750000 1.713077 0.000000
v 0.250000 1.713077 0.000000
v -1.000000 1.713077 0.250000
v 0.250000 1.713077 1.000000
v 1.000000 1.713077 -0.250000
v -0.250000 1.713077 -1.000000
v -1.000000 1.713077 -0.750000
v -0.750000 1.713077 1.000000
v 1.000000 1.713077 0.750000
v 0.750000 1.713077 -1.000000
v -0.250000 1.713077 0.000000
v 0.750000 1.713077 0.000000
v 0.500000 1.713077 0.250000
v 0.500000 1.713077 0.750000
v 0.250000 1.713077 0.500000
v 0.750000 1.713077 0.500000
v -0.500000 1.713077 0.250000
v -0.500000 1.713077 0.750000
v -0.750000 1.713077 0.500000
v -0.250000 1.713077 0.500000
v -0.500000 1.713077 -0.750000
v -0.500000 1.713077 -0.250000
v -0.750000 1.713077 -0.500000
v -0.250000 1.713077 -0.500000
v 0.500000 1.713077 -0.750000
v 0.500000 1.713077 -0.250000
v 0.250000 1.713077 -0.500000
v 0.750000 1.713077 -0.500000
v 0.750000 1.713077 -0.250000
v 0.250000 1.713077 -0.250000
v 0.250000 1.713077 -0.750000
v -0.250000 1.713077 -0.250000
v -0.750000 1.713077 -0.250000
v -0.750000 1.713077 -0.750000
v -0.250000 1.713077 0.750000
v -0.750000 1.713077 0.750000
v -0.750000 1.713077 0.250000
v 0.750000 1.713077 0.750000
v 0.250000 1.713077 0.750000
v 0.250000 1.713077 0.250000
v 0.750000 1.713077 0.250000
v -0.250000 1.713077 0.250000
v -0.250000 1.713077 -0.750000
v 0.750000 1.713077 -0.750000
v -0.500000 0.029932 0.750000
v -0.500000 0.029932 0.500000
v -0.750000 0.029932 0.500000
v -0.750000 0.029932 0.750000
v -0.500000 0.005726 -0.500000
v -0.500000 0.005726 -0.750000
v -0.750000 0.005726 -0.500000
v -0.750000 0.005726 -0.750000
v 1.000000 1.905686 1.000000
v -1.000000 1.905686 1.000000
v 1.000000 1.905686 -1.000000
v -1.000000 1.905686 -1.000000
v 1.000000 1.713077 1.000000
v -1.000000 1.713077 1.000000
v 1.000000 1.713077 -1.000000
v -1.000000 1.713077 -1.000000
v 1.000000 1.713077 0.000000
v 0.000000 1.713077 1.000000
v -1.000000 1.713077 0.000000
v 0.000000 1.713077 -1.000000
v 0.000000 1.713077 0.000000
v 1.000000 1.713077 0.500000
v -0.500000 1.713077 1.000000
v -1.000000 1.713077 -0.500000
v 0.500000 1.713077 -1.000000
v 1.000000 1.713077 -0.500000
v 0.500000 1.713077 1.000000
v -1.000000 1.713077 0.500000
v -0.500000 1.713077 -1.000000
v 0.000000 1.713077 -0.500000
v 0.000000 1.713077 0.500000
v 0.500000 1.713077 0.000000
v -0.500000 1.713077 0.000000
v -0.500000 1.713077 0.500000
v 0.500000 1.713077 0.500000
v 0.500000 1.713077 -0.500000
v -0.500000 1.713077 -0.500000
v 1.000000 1.713077 0.750000
v -0.750000 1.713077 1.000000
v -1.000000 1.713077 -0.750000
v 0.750000 1.713077 -1.000000
v 1.000000 1.713077 -0.250000
v 0.250000 1.713077 1.000000
v -1.000000 1.713077 0.250000
v -0.250000 1.713077 -1.000000
v 0.000000 1.713077 -0.750000
v 0.000000 1.713077 0.250000
v 0.750000 1.713077 0.000000
v -0.250000 1.713077 0.000000
v 1.000000 1.713077 0.250000
v -0.250000 1.713077 1.000000
v -1.000000 1.713077 -0.250000
v 0.250000 1.713077 -1.000000
v 1.000000 1.713077 -0.750000
v 0.750000 1.713077 1.000000
v -1.000000 1.713077 0.750000
v -0.750000 1.713077 -1.000000
v 0.000000 1.713077 -0.250000
v 0.000000 1.713077 0.750000
v 0.250000 1.713077 0.000000
v -0.750000 1.713077 0.000000
v -0.500000 1.713077 0.250000
v -0.500000 1.713077 0.750000
v -0.250000 1.713077 0.500000
v -0.750000 1.713077 0.500000
v 0.500000 1.713077 0.250000
v 0.500000 1.713077 0.750000
v 0.750000 1.713077 0.500000
v 0.250000 1.713077 0.500000
v 0.500000 1.713077 -0.750000
v 0.500000 1.713077 -0.250000
v 0.750000 1.713077 -0.500000
v 0.250000 1.713077 -0.500000
v -0.500000 1.713077 -0.750000
v -0.500000 1.713077 -0.250000
v -0.250000 1.713077 -0.500000
v -0.750000 1.713077 -0.500000
v -0.750000 1.713077 -0.250000
v -0.250000 1.713077 -0.250000
v -0.250000 1.713077 -0.750000
v 0.250000 1.713077 -0.250000
v 0.750000 1.713077 -0.250000
v 0.750000 1.713077 -0.750000
v 0.250000 1.713077 0.750000
v 0.750000 1.713077 0.750000
v 0.750000 1.713077 0.250000
v -0.750000 1.713077 0.750000
v -0.250000 1.713077 0.750000
v -0.250000 1.713077 0.250000
v -0.750000 1.713077 0.250000
v 0.250000 1.713077 0.250000
v 0.250000 1.713077 -0.750000
v -0.750000 1.713077 -0.750000
v 0.500000 0.029932 0.750000
v 0.500000 0.029932 0.500000
v 0.750000 0.029932 0.500000
v 0.750000 0.029932 0.750000
v 0.500000 0.005726 -0.500000
v 0.500000 0.005726 -0.750000
v 0.750000 0.005726 -0.500000
v 0.750000 0.005726 -0.750000
vt 0.717125 0.351918
vt 0.358562 0.351918
vt 0.358562 0.000000
vt 0.717125 0.000000
vt 0.313742 0.395908
vt 0.313742 0.351918
vt 0.358562 0.395908
vt 0.751656 1.000000
vt 0.751656 0.648082
vt 0.786187 0.648082
vt 0.786187 0.692072
vt 0.786187 0.736062
vt 0.786187 0.780051
vt 0.786187 0.824041
vt 0.786187 0.868031
vt 0.786187 0.912021
vt 0.786187 0.956010
vt 0.786187 1.000000
vt 0.896406 0.703836
vt 0.896406 0.351918
vt 0.930938 0.351918
vt 0.930938 0.395908
vt 0.930938 0.439897
vt 0.930938 0.483887
vt 0.930938 0.527877
vt 0.930938 0.571866
vt 0.930938 0.615856
vt 0.930938 0.659846
vt 0.930938 0.703836
vt 1.000000 0.351918
vt 1.000000 0.703836
vt 0.965469 0.703836
vt 0.965469 0.659846
vt 0.965469 0.615856
vt 0.965469 0.571866
vt 0.965469 0.527877
vt 0.965469 0.483887
vt 0.965469 0.439897
vt 0.965469 0.395908
vt 0.965469 0.351918
vt 0.930937 0.000000
vt 0.965468 0.000000
vt 0.965468 0.043990
vt 0.965468 0.087979
vt 0.965468 0.131969
vt 0.965468 0.175959
vt 0.965468 0.219949
vt 0.965468 0.263938
vt 0.965468 0.307928
vt 0.313742 0.571866
vt 0.313742 0.527877
vt 0.358562 0.527877
vt 0.358562 0.571866
vt 0.134461 0.571866
vt 0.134461 0.527877
vt 0.179281 0.527877
vt 0.179281 0.571866
vt 0.134461 0.395908
vt 0.134461 0.351918
vt 0.179281 0.351918
vt 0.179281 0.395908
vt 0.134461 0.483887
vt 0.134461 0.439897
vt 0.179281 0.439897
vt 0.179281 0.483887
vt 0.044820 0.483887
vt 0.044820 0.439897
vt 0.089641 0.439897
vt 0.089641 0.483887
vt 0.044820 0.395908
vt 0.044820 0.351918
vt 0.089641 0.351918
vt 0.089641 0.395908
vt 0.134461 0.659846
vt 0.134461 0.615856
vt 0.179281 0.615856
vt 0.179281 0.659846
vt 0.851586 0.351918
vt 0.896406 0.648082
vt 0.851586 0.648082
vt 0.044820 0.571867
vt 0.044820 0.527877
vt 0.089641 0.527877
vt 0.089641 0.571867
vt 0.313742 0.659846
vt 0.313742 0.615856
vt 0.358562 0.615856
vt 0.358562 0.659846
vt 0.224102 0.659846
vt 0.224102 0.615856
vt 0.268922 0.615856
vt 0.268922 0.659846
vt 0.224101 0.571866
vt 0.224101 0.527877
vt 0.268922 0.527877
vt 0.268922 0.571866
vt 0.313742 0.483887
vt 0.313742 0.439897
vt 0.358562 0.439897
vt 0.358562 0.483887
vt 0.224101 0.483887
vt 0.224101 0.439897
vt 0.268922 0.439897
vt 0.268922 0.483887
vt 0.224101 0.395908
vt 0.224101 0.351918
vt 0.268922 0.351918
vt 0.268922 0.395908
vt 0.224102 0.703836
vt 0.268922 0.703836
vt 0.179281 0.703836
vt 0.313742 0.703836
vt 0.358562 0.703836
vt 0.493023 0.652342
vt 0.448203 0.652342
vt 0.448203 0.351918
vt 0.493023 0.351918
vt 0.044820 0.615856
vt 0.089641 0.615856
vt 0.000000 0.615856
vt 0.000000 0.571867
vt 0.000000 0.527877
vt 0.044820 0.703836
vt 0.044820 0.659846
vt 0.089641 0.659846
vt 0.089641 0.703836
vt 0.000000 0.703836
vt 0.000000 0.659846
vt 0.134461 0.703836
vt 0.000000 0.439897
vt 0.000000 0.395908
vt 0.000000 0.351918
vt 0.000000 0.483887
vt 0.358562 0.652342
vt 0.403383 0.652342
vt 0.403383 0.696331
vt 0.358562 0.696331
vt 0.761945 0.000000
vt 0.761945 0.296164
vt 0.717125 0.296164
vt 0.806765 0.296164
vt 0.806765 0.000000
vt 0.851586 0.000000
vt 0.851586 0.296164
vt 0.448203 0.696331
vt 0.403383 0.351918
vt 0.537844 0.351918
vt 0.537844 0.652342
vt 0.672305 0.652342
vt 0.627485 0.652342
vt 0.627485 0.351918
vt 0.672305 0.351918
vt 0.000000 0.000000
vt 0.896406 0.000000
vt 0.930937 0.043990
vt 0.930937 0.087979
vt 0.930937 0.131969
vt 0.930937 0.175959
vt 0.930937 0.219949
vt 0.930937 0.263938
vt 0.930937 0.307928
vt 0.717125 0.648082
vt 0.751656 0.692072
vt 0.751656 0.736062
vt 0.751656 0.780051
vt 0.751656 0.824041
vt 0.751656 0.868031
vt 0.751656 0.912021
vt 0.751656 0.956010
vt 0.717125 1.000000
vt 1.000000 0.000000
vt 0.761945 0.351918
vt 0.761945 0.648082
vt 0.582664 0.652342
vt 0.582664 0.351918
vt 0.537844 0.696331
vt 0.493023 0.696331
vt 0.896406 0.296164
vt 0.806766 0.648082
vt 0.806766 0.351918
vt 0.717125 0.652342
vn 0.000000 -1.000000 0.000000
vn 0.000000 1.000000 0.000000
vn -1.000000 0.000000 0.000000
vn 1.000000 0.000000 0.000000
vn 0.000000 0.000000 1.000000
vn 0.000000 0.000000 -1.000000
usemtl None
s off
f 1/1/1 3/2/1 4/3/1 2/4/1
f 76/5/2 27/6/2 8/2/2 42/7/2
f 2/8/3 4/9/3 8/10/3 27/11/3 13/12/3 37/13/3 10/14/3 31/15/3 17/16/3 41/17/3 6/18/3
f 3/19/4 1/20/4 5/21/4 25/22/4 11/23/4 35/24/4 9/25/4 29/26/4 15/27/4 39/28/4 7/29/4
f 4/30/5 3/31/5 7/32/5 28/33/5 14/34/5 38/35/5 96/36/5 32/37/5 18/38/5 42/39/5 8/40/5
f 1/21/6 2/41/6 6/42/6 26/43/6 12/44/6 36/45/6 94/46/6 30/47/6 16/48/6 40/49/6 5/40/6
f 75/50/2 122/51/2 96/52/2 38/53/2
f 74/54/2 123/55/2 97/56/2 43/57/2
f 73/58/2 31/59/2 10/60/2 44/61/2
f 72/62/2 45/63/2 20/64/2 34/65/2
f 71/66/2 46/67/2 21/68/2 47/69/2
f 70/70/2 41/71/2 17/72/2 48/73/2
f 69/74/2 49/75/2 19/76/2 33/77/2
f 51/78/4 68/20/4 80/79/4 79/80/4
f 67/81/2 135/82/2 107/83/2 52/84/2
f 66/85/2 53/86/2 14/87/2 28/88/2
f 65/89/2 54/90/2 23/91/2 55/92/2
f 64/93/2 134/94/2 106/95/2 56/96/2
f 63/97/2 57/98/2 18/99/2 32/100/2
f 62/101/2 58/102/2 24/103/2 59/104/2
f 61/105/2 37/106/2 13/107/2 60/108/2
f 58/102/2 61/105/2 60/108/2 24/103/2
f 20/64/2 44/61/2 61/105/2 58/102/2
f 44/61/2 10/60/2 37/106/2 61/105/2
f 134/94/2 62/101/2 59/104/2 106/95/2
f 97/56/2 34/65/2 62/101/2 134/94/2
f 34/65/2 20/64/2 58/102/2 62/101/2
f 122/51/2 63/97/2 32/100/2 96/52/2
f 106/95/2 59/104/2 63/97/2 122/51/2
f 59/104/2 24/103/2 57/98/2 63/97/2
f 54/90/2 64/93/2 56/96/2 23/91/2
f 19/76/2 43/57/2 64/93/2 54/90/2
f 43/57/2 97/56/2 134/94/2 64/93/2
f 29/109/2 65/89/2 55/92/2 15/110/2
f 9/111/2 33/77/2 65/89/2 29/109/2
f 33/77/2 19/76/2 54/90/2 65/89/2
f 39/112/2 66/85/2 28/88/2 7/113/2
f 15/110/2 55/92/2 66/85/2 39/112/2
f 55/114/6 23/115/6 81/116/6 83/117/6
f 50/118/2 67/81/2 52/84/2 22/119/2
f 16/120/2 30/121/2 67/81/2 50/118/2
f 30/121/2 94/122/2 135/82/2 67/81/2
f 25/123/2 68/124/2 51/125/2 11/126/2
f 5/127/2 40/128/2 68/124/2 25/123/2
f 40/128/2 16/120/2 50/118/2 68/124/2
f 35/129/2 69/74/2 33/77/2 9/111/2
f 11/126/2 51/125/2 69/74/2 35/129/2
f 51/125/2 22/119/2 49/75/2 69/74/2
f 46/67/2 70/70/2 48/73/2 21/68/2
f 12/130/2 26/131/2 70/70/2 46/67/2
f 26/131/2 6/132/2 41/71/2 70/70/2
f 135/82/2 71/66/2 47/69/2 107/83/2
f 94/122/2 36/133/2 71/66/2 135/82/2
f 36/133/2 12/130/2 46/67/2 71/66/2
f 123/55/2 72/62/2 34/65/2 97/56/2
f 107/83/2 47/69/2 72/62/2 123/55/2
f 47/69/2 21/68/2 45/63/2 72/62/2
f 45/63/2 73/58/2 44/61/2 20/64/2
f 21/68/2 48/73/2 73/58/2 45/63/2
f 48/73/2 17/72/2 31/59/2 73/58/2
f 49/75/2 74/54/2 43/57/2 19/76/2
f 22/119/2 52/84/2 74/54/2 49/75/2
f 52/84/2 107/83/2 123/55/2 74/54/2
f 53/86/2 75/50/2 38/53/2 14/87/2
f 23/91/2 56/96/2 75/50/2 53/86/2
f 56/96/2 106/95/2 122/51/2 75/50/2
f 57/98/2 76/5/2 42/7/2 18/99/2
f 24/103/2 60/108/2 76/5/2 57/98/2
f 60/108/2 13/107/2 27/6/2 76/5/2
f 80/134/2 77/135/2 78/136/2 79/137/2
f 50/4/3 22/138/3 78/139/3 77/140/3
f 68/141/6 50/139/6 77/138/6 80/142/6
f 22/142/5 51/143/5 79/144/5 78/141/5
f 83/136/2 81/135/2 82/115/2 84/145/2
f 23/146/3 53/116/3 82/115/3 81/135/3
f 53/117/5 66/147/5 84/148/5 82/114/5
f 66/149/4 55/150/4 83/151/4 84/152/4
f 85/3/1 86/2/1 88/132/1 87/153/1
f 169/85/2 133/88/2 92/113/2 116/112/2
f 86/154/4 90/41/4 132/155/4 104/156/4 120/157/4 95/158/4 128/159/4 100/160/4 116/161/4 92/21/4 88/20/4
f 87/162/3 91/9/3 130/163/3 102/164/3 118/165/3 93/166/3 126/167/3 98/168/3 114/169/3 89/8/3 85/170/3
f 88/30/5 92/40/5 133/49/5 105/48/5 121/47/5 96/46/5 129/45/5 101/44/5 117/43/5 91/42/5 87/171/5
f 85/21/6 89/40/6 131/39/6 103/38/6 119/37/6 94/36/6 127/35/6 99/34/6 115/33/6 90/32/6 86/29/6
f 168/97/2 129/100/2 96/52/2 122/51/2
f 167/62/2 136/65/2 97/56/2 123/55/2
f 166/74/2 137/77/2 95/111/2 120/129/2
f 165/54/2 125/57/2 109/76/2 138/75/2
f 164/81/2 140/84/2 110/119/2 139/118/2
f 163/124/2 141/125/2 104/126/2 132/123/2
f 162/58/2 124/61/2 108/64/2 142/63/2
f 144/172/3 172/173/3 173/162/3 161/1/3
f 160/66/2 145/69/2 107/83/2 135/82/2
f 159/5/2 117/7/2 101/99/2 146/98/2
f 158/105/2 148/108/2 112/103/2 147/102/2
f 157/101/2 149/104/2 106/95/2 134/94/2
f 156/50/2 121/53/2 105/87/2 150/86/2
f 155/93/2 152/96/2 113/91/2 151/90/2
f 154/89/2 153/92/2 100/110/2 128/109/2
f 151/90/2 113/91/2 153/92/2 154/89/2
f 109/76/2 151/90/2 154/89/2 137/77/2
f 137/77/2 154/89/2 128/109/2 95/111/2
f 134/94/2 106/95/2 152/96/2 155/93/2
f 97/56/2 134/94/2 155/93/2 125/57/2
f 125/57/2 155/93/2 151/90/2 109/76/2
f 122/51/2 96/52/2 121/53/2 156/50/2
f 106/95/2 122/51/2 156/50/2 152/96/2
f 152/96/2 156/50/2 150/86/2 113/91/2
f 147/102/2 112/103/2 149/104/2 157/101/2
f 108/64/2 147/102/2 157/101/2 136/65/2
f 136/65/2 157/101/2 134/94/2 97/56/2
f 118/106/2 102/107/2 148/108/2 158/105/2
f 93/60/2 118/106/2 158/105/2 124/61/2
f 124/61/2 158/105/2 147/102/2 108/64/2
f 130/6/2 91/2/2 117/7/2 159/5/2
f 102/107/2 130/6/2 159/5/2 148/108/2
f 148/151/6 176/150/6 174/174/6 112/175/6
f 143/67/2 111/68/2 145/69/2 160/66/2
f 103/130/2 143/67/2 160/66/2 119/133/2
f 119/133/2 160/66/2 135/82/2 94/122/2
f 114/71/2 98/72/2 144/73/2 161/70/2
f 89/132/2 114/71/2 161/70/2 131/131/2
f 131/131/2 161/70/2 143/67/2 103/130/2
f 126/59/2 93/60/2 124/61/2 162/58/2
f 98/72/2 126/59/2 162/58/2 144/73/2
f 144/73/2 162/58/2 142/63/2 111/68/2
f 139/118/2 110/119/2 141/125/2 163/124/2
f 99/120/2 139/118/2 163/124/2 115/128/2
f 115/128/2 163/124/2 132/123/2 90/127/2
f 135/82/2 107/83/2 140/84/2 164/81/2
f 94/122/2 135/82/2 164/81/2 127/121/2
f 127/121/2 164/81/2 139/118/2 99/120/2
f 123/55/2 97/56/2 125/57/2 165/54/2
f 107/83/2 123/55/2 165/54/2 140/84/2
f 140/84/2 165/54/2 138/75/2 110/119/2
f 138/75/2 109/76/2 137/77/2 166/74/2
f 110/119/2 138/75/2 166/74/2 141/125/2
f 141/125/2 166/74/2 120/129/2 104/126/2
f 142/63/2 108/64/2 136/65/2 167/62/2
f 111/68/2 142/63/2 167/62/2 145/69/2
f 145/69/2 167/62/2 123/55/2 107/83/2
f 146/98/2 101/99/2 129/100/2 168/97/2
f 112/103/2 146/98/2 168/97/2 149/104/2
f 149/104/2 168/97/2 122/51/2 106/95/2
f 150/86/2 105/87/2 133/88/2 169/85/2
f 113/91/2 150/86/2 169/85/2 153/92/2
f 153/92/2 169/85/2 116/112/2 100/110/2
f 173/114/2 172/148/2 171/176/2 170/177/2
f 143/154/4 170/178/4 171/144/4 111/143/4
f 161/78/6 173/80/6 170/179/6 143/180/6
f 111/180/5 171/179/5 172/173/5 144/172/5
f 176/115/2 177/114/2 175/177/2 174/145/2
f 112/149/4 174/152/4 175/1/4 146/181/4
f 146/175/5 175/174/5 177/148/5 159/147/5
f 159/146/3 177/135/3 176/134/3 148/2/3
